<svg width="780" height="200" viewBox="55 55 785 210" fill="none" xmlns="http://www.w3.org/2000/svg">
<path d="M738.405 217.53L768.755 176.139L738.405 134.747H762.751L782.929 163.287H783.596L803.773 134.747H827.953L797.603 176.139L827.953 217.53H803.773L783.596 188.99H782.929L762.751 217.53H738.405Z" fill="#FFFFFF"/>
<path d="M696.829 219.535C688.38 219.535 680.876 217.755 674.317 214.194C667.869 210.633 662.811 205.626 659.143 199.173C655.474 192.719 653.64 185.32 653.64 176.975C653.64 168.296 655.418 160.674 658.976 154.109C662.644 147.433 667.703 142.204 674.15 138.421C680.71 134.637 688.269 132.746 696.829 132.746C705.167 132.746 712.449 134.526 718.674 138.087C724.9 141.647 729.791 146.543 733.349 152.774C736.906 158.894 738.685 165.848 738.685 173.637C738.685 174.749 738.629 176.029 738.518 177.476C738.518 178.811 738.462 180.202 738.351 181.648H669.648V167.795H715.839C715.506 162.566 713.56 158.393 710.003 155.278C706.557 152.162 702.221 150.604 696.996 150.604C693.105 150.604 689.548 151.494 686.324 153.275C683.1 154.944 680.543 157.559 678.653 161.119C676.763 164.568 675.818 168.964 675.818 174.304V179.145C675.818 183.707 676.707 187.657 678.486 190.995C680.265 194.221 682.711 196.725 685.823 198.505C689.047 200.285 692.66 201.176 696.662 201.176C700.776 201.176 704.222 200.285 707.001 198.505C709.78 196.614 711.893 194.221 713.338 191.328H736.183C734.627 196.558 732.014 201.342 728.346 205.682C724.677 209.91 720.175 213.304 714.839 215.863C709.503 218.311 703.499 219.535 696.829 219.535Z" fill="#FFFFFF"/>
<path d="M619.52 217.531V100.7H642.032V217.531H619.52Z" fill="#FFFFFF"/>
<path d="M562.927 252.913C555.034 252.913 548.085 251.968 542.082 250.076C536.19 248.184 531.577 245.347 528.242 241.564C525.018 237.892 523.406 233.442 523.406 228.212C523.406 224.318 524.406 220.757 526.407 217.53C528.408 214.192 531.354 211.188 535.245 208.518C539.136 205.736 543.917 203.344 549.586 201.341L557.757 212.523C552.866 214.192 549.308 216.195 547.085 218.532C544.862 220.868 543.75 223.539 543.75 226.543C543.75 228.768 544.528 230.66 546.084 232.218C547.752 233.775 550.031 234.944 552.921 235.722C555.812 236.613 559.147 237.058 562.927 237.058C566.706 237.058 569.875 236.613 572.432 235.722C574.989 234.832 576.934 233.553 578.268 231.884C579.602 230.326 580.269 228.49 580.269 226.376C580.269 223.372 579.213 221.035 577.101 219.366C574.989 217.808 570.875 216.807 564.761 216.362C559.091 215.917 554.089 215.305 549.753 214.526C545.417 213.636 541.582 212.634 538.247 211.522C535.023 210.298 532.244 208.963 529.909 207.516C527.575 206.07 525.685 204.623 524.24 203.177V199.338L542.082 180.979L555.256 185.986L537.246 206.014L543.25 196C544.361 196.445 545.529 196.89 546.751 197.335C547.974 197.78 549.475 198.225 551.254 198.67C553.144 199.115 555.478 199.56 558.258 200.006C561.148 200.339 564.761 200.729 569.097 201.174C576.434 201.73 582.437 203.01 587.106 205.013C591.775 207.015 595.222 209.741 597.445 213.191C599.668 216.64 600.78 220.868 600.78 225.875C600.78 230.215 599.39 234.443 596.611 238.56C593.943 242.788 589.83 246.237 584.271 248.908C578.713 251.578 571.598 252.913 562.927 252.913ZM563.093 192.996C556.09 192.996 550.031 191.66 544.917 188.99C539.914 186.32 536.024 182.703 533.244 178.141C530.576 173.579 529.242 168.517 529.242 162.953C529.242 157.39 530.576 152.327 533.244 147.765C536.024 143.203 539.914 139.587 544.917 136.917C550.031 134.135 556.09 132.744 563.093 132.744C570.097 132.744 576.1 134.135 581.103 136.917C586.217 139.587 590.108 143.203 592.776 147.765C595.444 152.327 596.778 157.39 596.778 162.953C596.778 168.517 595.444 173.579 592.776 178.141C590.108 182.703 586.217 186.32 581.103 188.99C576.1 191.66 570.097 192.996 563.093 192.996ZM562.927 176.639C567.373 176.639 570.931 175.527 573.599 173.301C576.378 170.965 577.768 167.515 577.768 162.953C577.768 158.391 576.378 154.998 573.599 152.772C570.931 150.436 567.429 149.267 563.093 149.267C558.647 149.267 555.034 150.436 552.254 152.772C549.586 154.998 548.252 158.391 548.252 162.953C548.252 167.515 549.586 170.965 552.254 173.301C555.034 175.527 558.591 176.639 562.927 176.639ZM585.184 159.407L571.86 151.264L596.386 126.716L604.993 135.331L585.184 159.407Z" fill="#FFFFFF"/>
<path d="M460.809 219.533C454.027 219.533 448.246 218.087 443.466 215.194C438.686 212.301 435.017 208.017 432.46 202.342C429.903 196.556 428.625 189.491 428.625 181.146V134.747H450.97V179.143C450.97 186.042 452.36 191.327 455.139 194.999C458.029 198.67 462.476 200.506 468.479 200.506C472.37 200.506 475.761 199.616 478.651 197.836C481.653 195.944 483.988 193.274 485.655 189.825C487.323 186.375 488.156 182.258 488.156 177.474V134.747H510.668V217.53H491.492L489.491 204.345H488.824C486.267 209.018 482.654 212.746 477.984 215.528C473.426 218.198 467.701 219.533 460.809 219.533Z" fill="#FFFFFF"/>
<path d="M359.608 219.533C348.491 219.533 338.819 217.086 330.593 212.19C322.366 207.183 315.974 200.228 311.416 191.327C306.858 182.314 304.579 171.855 304.579 159.949C304.579 147.933 306.914 137.362 311.583 128.238C316.252 119.003 322.978 111.771 331.76 106.541C340.543 101.311 351.048 98.6965 363.277 98.6965C376.951 98.6965 388.29 101.979 397.295 108.544C406.411 115.109 412.303 124.233 414.971 135.916H389.791C388.123 130.797 385.011 126.792 380.453 123.899C376.006 120.894 370.225 119.392 363.11 119.392C355.551 119.392 349.103 121.061 343.766 124.399C338.43 127.737 334.373 132.411 331.593 138.419C328.814 144.428 327.425 151.604 327.425 159.949C327.425 168.406 328.814 175.583 331.593 181.48C334.373 187.377 338.319 191.883 343.433 194.999C348.658 198.003 354.772 199.505 361.776 199.505C372.004 199.505 379.73 196.779 384.955 191.327C390.291 185.764 393.459 178.587 394.46 169.797H365.778V152.94H417.139V217.531H400.296L398.796 201.842C394.835 206.765 384.205 214.578 374.616 217.531C370.656 218.75 365.278 219.533 359.608 219.533Z" fill="#FFFFFF"/>
<path d="M256.385 252.832C256.385 254.601 254.551 255.77 252.954 255.02L192.53 226.674V172.077C192.53 170.742 193.609 169.661 194.939 169.661H253.975C255.306 169.661 256.385 170.742 256.385 172.077V252.832Z" fill="#FE6801"/>
<path d="M192.529 226.674L128.244 256.164C127.6 256.46 126.859 256.456 126.217 256.154L64.9999 227.326C64.1545 226.928 63.6147 226.076 63.6147 225.14V198.651C63.6147 197.317 64.6936 196.235 66.0244 196.235H126.696C127.047 196.235 127.393 196.312 127.712 196.46L192.529 226.674Z" fill="#0194FF"/>
<path d="M127.229 181.741C127.229 183.075 126.15 184.157 124.819 184.157H66.0244C64.6936 184.157 63.6147 183.075 63.6147 181.741V125.296C63.6147 124.359 64.1545 123.507 64.9999 123.109L127.229 93.8057V181.741Z" fill="#01B378"/>
<path d="M254.991 92.5208C255.841 92.9172 256.384 93.7715 256.384 94.7108V147.919C256.384 149.253 255.305 150.335 253.974 150.335H194.939C193.608 150.335 192.529 149.253 192.529 147.919V126.008C192.529 125.071 191.988 124.218 191.142 123.821L127.229 93.8049L191.513 63.8397C192.157 63.5393 192.901 63.5394 193.545 63.8402L254.991 92.5208Z" fill="#F8BB06"/>
</svg>
