<svg xmlns="http://www.w3.org/2000/svg" viewBox="63 63 194 194" fill="none" role="img" aria-label="Guglex">
  <rect x="63" y="63" width="194" height="194" fill="#000000"/>
  <path d="M256.385 252.832C256.385 254.601 254.551 255.77 252.954 255.02L192.53 226.674V172.077C192.53 170.742 193.609 169.661 194.939 169.661H253.975C255.306 169.661 256.385 170.742 256.385 172.077V252.832Z" fill="#FE6801"/>
  <path d="M192.529 226.674L128.244 256.164C127.6 256.46 126.859 256.456 126.217 256.154L64.9999 227.326C64.1545 226.928 63.6147 226.076 63.6147 225.14V198.651C63.6147 197.317 64.6936 196.235 66.0244 196.235H126.696C127.047 196.235 127.393 196.312 127.712 196.46L192.529 226.674Z" fill="#0194FF"/>
  <path d="M127.229 181.741C127.229 183.075 126.15 184.157 124.819 184.157H66.0244C64.6936 184.157 63.6147 183.075 63.6147 181.741V125.296C63.6147 124.359 64.1545 123.507 64.9999 123.109L127.229 93.8057V181.741Z" fill="#01B378"/>
  <path d="M254.991 92.5208C255.841 92.9172 256.384 93.7715 256.384 94.7108V147.919C256.384 149.253 255.305 150.335 253.974 150.335H194.939C193.608 150.335 192.529 149.253 192.529 147.919V126.008C192.529 125.071 191.988 124.218 191.142 123.821L127.229 93.8049L191.513 63.8397C192.157 63.5393 192.901 63.5394 193.545 63.8402L254.991 92.5208Z" fill="#F8BB06"/>
</svg>
